<svg version="1.1" xmlns="http://www.w3.org/2000/svg" xmlns:xlink="http://www.w3.org/1999/xlink" width="33.2598" height="52.73415" viewBox="0,0,33.2598,52.73415"><g transform="translate(-223.3701,-153.63292)"><g data-paper-data="{&quot;isPaintingLayer&quot;:true}" fill-rule="nonzero" stroke="none" stroke-width="0.5" stroke-linecap="butt" stroke-linejoin="miter" stroke-miterlimit="10" stroke-dasharray="" stroke-dashoffset="0" style="mix-blend-mode: normal"><path d="M245.60612,199.97104c-0.99191,1.57091 -2.40215,0.47703 -2.40215,0.47703l-1.40229,-1.09133c-1.13866,-0.99624 -2.60174,-2.11147 -3.43291,-3.4847c-3.68159,-6.08253 -1.35105,-14.38799 2.94387,-18.97366c2.32192,-1.76582 4.06304,-5.8513 4.10242,-8.94441c0.00235,-0.1842 0.18404,-3.4903 -0.09462,-3.97323c-0.31538,-0.54657 -1.00274,-0.67937 -1.44442,-1.10448c-2.79345,-2.68864 -5.65648,-3.43469 -9.37612,-3.25147c-2.84863,0.14032 -5.90601,4.91031 -7.56611,7.11272c0,0 -1.11034,1.47025 -2.42935,0.24439c-1.31901,-1.22586 -0.20866,-2.69611 -0.20866,-2.69611c2.47354,-3.26942 5.75948,-8.06078 9.86841,-8.46951c4.51657,-0.44929 8.72603,0.84739 12.0355,4.21913c0.67203,0.68468 1.63281,1.08902 2.08302,1.97011c2.74618,5.37448 -0.85198,14.60373 -4.77652,17.83533c-3.012,3.1722 -4.97837,9.53944 -2.29055,13.856c0.55873,0.89731 2.0497,2.05963 2.72327,2.64425l1.2489,0.96514c0,0 1.41024,1.09388 0.41833,2.6648z" fill="#ffffff"/><path d="M248.68645,199.88119c-1.14655,1.63872 -2.78528,0.49217 -2.78528,0.49217l-1.62951,-1.14386c-1.32344,-1.04383 -3.02352,-2.21282 -3.99126,-3.64973c-4.28647,-6.3646 -1.60454,-15.03614 3.36572,-19.81613c2.68887,-1.83891 4.698,-6.10292 4.73566,-9.33452c0.00224,-0.19244 0.20443,-3.6462 -0.12007,-4.1515c-0.36726,-0.57188 -1.16495,-0.71241 -1.67841,-1.15771c-3.24741,-2.81635 -6.5705,-3.60325 -10.88484,-3.42146c-3.30408,0.13922 -6.8383,5.11499 -8.75834,7.41178c0,0 -1.2842,1.53324 -2.81744,0.24904c-1.53324,-1.2842 -0.24904,-2.81744 -0.24904,-2.81744c2.86085,-3.40949 6.66016,-8.407 11.4255,-8.82339c5.23811,-0.45771 10.1245,0.90798 13.97226,4.43938c0.78134,0.7171 1.89691,1.14205 2.42144,2.06378c3.19954,5.6224 -0.95044,15.25583 -5.49456,18.62204c-3.48572,3.30651 -5.75022,9.95394 -2.62113,14.47087c0.65046,0.93896 2.38301,2.15722 3.16588,2.76979l1.45124,1.01162c0,0 1.63873,1.14655 0.49218,2.78528z" fill="#000000"/><path d="M252.30084,204.32208c0.02485,-1.10429 0.94019,-1.97935 2.04448,-1.95451c1.10429,0.02485 1.97935,0.94019 1.95451,2.04448c-0.02485,1.10429 -0.94019,1.97935 -2.04448,1.95451c-1.10429,-0.02485 -1.97935,-0.94019 -1.95451,-2.04448z" fill="#ffffff"/><path d="M252.63039,204.04259c0.02485,-1.10429 0.94019,-1.97935 2.04448,-1.95451c1.10429,0.02485 1.97935,0.94019 1.95451,2.04448c-0.02485,1.10429 -0.94019,1.97935 -2.04448,1.95451c-1.10429,-0.02485 -1.97935,-0.94019 -1.95451,-2.04448z" fill="#000000"/></g></g></svg>