<svg version="1.1" xmlns="http://www.w3.org/2000/svg" xmlns:xlink="http://www.w3.org/1999/xlink" width="84.3766" height="56.80912" viewBox="0,0,84.3766,56.80912"><g transform="translate(-202.73147,-153.67818)"><g data-paper-data="{&quot;isPaintingLayer&quot;:true}" fill-rule="nonzero" stroke="none" stroke-width="0.5" stroke-linecap="butt" stroke-linejoin="miter" stroke-miterlimit="10" stroke-dasharray="" stroke-dashoffset="0" style="mix-blend-mode: normal"><path d="M236.83113,200.4995c-1.55347,1.01901 -2.384,-0.56073 -2.384,-0.56073l-0.82436,-1.57412c-0.62378,-1.37838 -1.49357,-2.99944 -1.68134,-4.59359c-0.83173,-7.06113 4.72945,-13.65547 10.53795,-16.05047c2.84476,-0.64556 6.12164,-3.64301 7.43858,-6.44204c0.07843,-0.16669 1.61312,-3.10063 1.5595,-3.65561c-0.06068,-0.62811 -0.63132,-1.03367 -0.85726,-1.60353c-1.42901,-3.60417 -3.72594,-5.46903 -7.18743,-6.84286c-2.65093,-1.05212 -7.40937,2.02322 -9.83257,3.34027c0,0 -1.61957,0.87833 -2.3124,-0.78374c-0.69284,-1.66207 0.92674,-2.54041 0.92674,-2.54041c3.60553,-1.95133 8.58085,-4.95145 12.49007,-3.62165c4.29705,1.46172 7.59143,4.38542 9.2072,8.82507c0.3281,0.90153 1.03513,1.6675 1.07998,2.65592c0.27357,6.02924 -6.824,12.93939 -11.73455,14.25533c-4.05536,1.63983 -8.48231,6.62084 -7.82369,11.66298c0.13691,1.04814 1.01257,2.72361 1.38352,3.53471l0.73701,1.39573c0,0 0.83053,1.57973 -0.72294,2.59875z" fill="#ffcc00"/><path d="M239.67204,201.69353c-1.72231,1.01668 -2.739,-0.70563 -2.739,-0.70563l-1.00941,-1.71605c-0.77226,-1.49823 -1.8355,-3.26637 -2.1212,-4.97505c-1.26546,-7.5684 4.76718,-14.3504 11.27085,-16.64256c3.20904,-0.5601 6.80379,-3.60906 8.17653,-6.53485c0.08175,-0.17423 1.69624,-3.23408 1.61017,-3.82841c-0.09742,-0.67264 -0.76527,-1.13092 -1.04818,-1.7489c-1.78931,-3.90843 -4.48806,-6.00102 -8.49025,-7.62246c-3.06502,-1.24176 -8.34271,1.82337 -11.0416,3.11867c0,0 -1.80391,0.86366 -2.66757,-0.94024c-0.86366,-1.8039 0.94025,-2.66757 0.94025,-2.66757c4.01607,-1.91841 9.54404,-4.89353 14.05389,-3.29883c4.95728,1.7529 8.83921,5.01978 10.87881,9.8277c0.41417,0.97631 1.25356,1.82514 1.34922,2.88135c0.58354,6.44267 -7.18371,13.49215 -12.71395,14.67399c-4.54217,1.56587 -9.35652,6.67843 -8.37924,12.08572c0.20315,1.12404 1.27553,2.95048 1.73439,3.83229l0.90192,1.52184c0,0 1.01669,1.72231 -0.70562,2.739z" fill="#000000"/><path d="M241.12253,207.2326c0.47999,-0.99483 1.67556,-1.41219 2.67039,-0.93221c0.99483,0.47999 1.41219,1.67557 0.93221,2.6704c-0.47999,0.99483 -1.67556,1.41219 -2.67039,0.93221c-0.99483,-0.47999 -1.41219,-1.67557 -0.93221,-2.6704z" fill="#ffcc00"/><path d="M241.53825,207.11471c0.47999,-0.99483 1.67556,-1.41219 2.67039,-0.93221c0.99483,0.47999 1.41219,1.67556 0.93221,2.67039c-0.47999,0.99483 -1.67556,1.41219 -2.67039,0.93221c-0.99483,-0.47999 -1.41219,-1.67556 -0.93221,-2.67039z" fill="#000000"/><path d="M226.49011,167.78752c0,0.4148 -0.24723,0.58239 -0.44699,0.65009c-1.29228,1.54479 -2.81421,2.7717 -4.04239,4.35246c-1.62914,2.09684 -1.27335,6.05178 -1.27335,8.52218c0,4.28813 0.52867,10.79592 5.40443,12.39404c0,0 0.66026,0.22009 0.44018,0.88035c-0.22009,0.66026 -0.88035,0.44018 -0.88035,0.44018c-5.52666,-1.86786 -6.35621,-8.7284 -6.35621,-13.71458c0,-2.87717 -0.25478,-6.88186 1.54921,-9.35399c1.24359,-1.70418 2.9322,-2.94522 4.2484,-4.60553l0.66108,-0.2612c0,0 0.69598,0 0.69598,0.69598z" fill="#ffcc00"/><path d="M214.82549,199.00604c0.41759,0.55678 -0.1392,0.97437 -0.1392,0.97437l-0.45324,0.33951c-2.58532,2.06472 -6.43371,4.17659 -9.92651,4.57516l0.0392,0.13723l-0.82325,0.23521l-0.08837,-0.30929c-0.23676,0.00679 -0.47116,0.00466 -0.70268,-0.00697l0.33076,-0.62204l-0.22305,-0.22305l0.70564,-0.70564l0.00732,0.00732l0.01549,-0.02912c2.79197,-2.32989 5.67374,-4.53947 8.45156,-6.88973c0.50264,-0.42527 1.02435,-0.95788 1.57779,-1.42145c-1.52484,0.00972 -2.73914,-0.44087 -1.32131,-2.16046c0.16785,-0.20357 0.41162,-0.3302 0.61742,-0.4953c0,0 0.54347,-0.43478 0.97824,0.10869c0.43478,0.54347 -0.10869,0.97824 -0.10869,0.97824c-0.05143,0.04102 -0.1267,0.09081 -0.21284,0.1424c0.79183,-0.13322 1.98531,-0.17478 2.40942,-0.29661l0.80779,-0.23079c0.06529,-0.02027 0.1347,-0.03119 0.20666,-0.03119c0.38438,0 0.69598,0.3116 0.69598,0.69598c0,0.27108 -0.15498,0.50597 -0.38117,0.62088l-1.21549,0.64826l-0.0171,-0.03206c-3.06377,2.81497 -6.46956,5.31189 -9.73071,7.91219c0.08462,-0.02379 0.16488,-0.04877 0.2393,-0.07573c2.36288,-0.85597 4.83219,-2.04268 6.79904,-3.61908l0.48761,-0.36613c0,0 0.55678,-0.41759 0.97437,0.1392z" fill="#ffcc00"/><path d="M217.35639,165.09359c0.13323,0.00952 0.66607,0.08565 0.66607,0.69462c0,0.69598 -0.69598,0.69598 -0.69598,0.69598l-0.39289,-0.05676c-3.10644,-1.34683 -5.99369,-3.64239 -8.50717,-5.88424c0.40148,0.68677 0.80516,1.37173 1.24409,2.03252c1.50299,2.26269 3.10112,4.17302 4.18586,6.55126l0.13618,-0.07263l0.64882,1.21655c0.05611,0.10035 0.0881,0.21603 0.0881,0.33917c0,0.38438 -0.3116,0.69598 -0.69598,0.69598c-0.07196,0 -0.14137,-0.01092 -0.20666,-0.03119l-0.80779,-0.23079l0.00412,-0.01442l-0.05043,-0.00058c-0.26211,-0.11612 -0.77086,-0.25486 -1.26579,-0.43637c1.0361,1.52861 1.98741,3.08387 2.6278,4.83661c0,0 0.23784,0.65408 -0.41623,0.89193c-0.65408,0.23784 -0.89193,-0.41623 -0.89193,-0.41623c-0.73831,-2.04084 -1.95196,-3.79686 -3.18799,-5.57232l-0.57068,-0.68482c-0.10246,-0.12121 -0.16424,-0.27792 -0.16424,-0.44907c0,-0.38438 0.3116,-0.69598 0.69598,-0.69598h0.70564v0.22914c0.71823,0.01949 1.30658,0.2467 2.02909,0.57267c-0.73331,-0.89461 -1.23134,-2.0761 -1.83195,-3.02798c-1.66214,-2.63426 -3.45298,-5.35823 -5.26243,-7.89146l-0.00725,-0.05724l-0.01901,0.0095l-0.34656,-0.69311c-0.05092,-0.09671 -0.07974,-0.20688 -0.07974,-0.32378c0,-0.38438 0.3116,-0.69598 0.69598,-0.69598c0.15921,0 0.30595,0.05347 0.42321,0.14341l1.10795,0.83096l-0.10733,0.14311c3.54692,2.14386 6.33899,5.63155 10.24913,7.35153z" fill="#ffcc00"/><path d="M263.33754,164.91054c0.56076,-0.28038 0.84113,0.28038 0.84113,0.28038l0.12144,0.24529c1.36294,3.21121 2.80198,6.37312 3.32794,9.90071c0.37317,2.50283 0.11284,5.193 0.11284,7.72049c-0.00604,3.41506 -0.89884,6.55274 -3.23627,9.10989c-1.37299,1.50205 -3.24683,2.49735 -4.68101,3.94034c0,0 -0.44332,0.44332 -0.88663,0c-0.44332,-0.44332 0,-0.88663 0,-0.88663c1.26563,-1.2589 2.79693,-2.31272 4.17752,-3.43162c2.55062,-2.06716 3.37861,-5.62141 3.37251,-8.73198c0,-2.46206 0.26896,-5.09769 -0.09904,-7.53493c-0.51559,-3.41476 -1.90022,-6.49139 -3.24037,-9.59233l-0.09044,-0.17847c0,0 -0.28038,-0.56076 0.28038,-0.84113z" fill="#ffcc00"/><path d="M279.91282,202.45321c0.52853,0 0.6115,0.44556 0.62452,0.58545c1.12726,1.2116 2.07808,2.78307 3.05964,4.12075c0.22231,0.30296 0.54121,0.66571 0.75255,1.04762c0.13583,0.11417 0.27069,0.22947 0.4044,0.3461l0.53452,0.17817c0.25618,0.07879 0.4424,0.31732 0.4424,0.59934c0,0.28202 -0.18621,0.52056 -0.4424,0.59934l-0.62193,0.20731l-0.01386,-0.04159c-0.12162,0.04732 -0.24778,0.06672 -0.38111,0.0421c-0.50604,-0.09344 -0.68915,-0.7479 -0.98327,-1.18864c-0.32572,-0.26277 -0.65382,-0.5226 -0.98389,-0.77984c-2.06155,-1.6492 -4.05563,-3.09184 -6.39387,-4.32377c-0.64374,-0.33916 -1.27812,-0.6968 -1.90093,-1.07302c-0.28777,-0.17383 -0.56223,-0.36878 -0.84357,-0.55282c-0.07851,-0.05135 -0.31385,-0.20565 -0.23597,-0.15336c1.62847,1.09356 2.58759,3.39401 3.75177,4.97702c0.59466,0.8086 1.0755,1.30365 1.4592,1.97572l0.0219,0.01642l0.12066,-0.09652l0.42064,0.5258c0.08784,0.1079 0.1405,0.24557 0.1405,0.39555c0,0.34625 -0.28069,0.62694 -0.62694,0.62694c-0.14342,0 -0.2756,-0.04816 -0.38123,-0.12919l-0.84245,-0.63185l0.00562,-0.00749l-0.02714,-0.0094c-3.25227,-2.9116 -6.70847,-5.58597 -9.97723,-8.49131c0,0 -0.46858,-0.41652 -0.05207,-0.8851c0.41652,-0.46858 0.8851,-0.05207 0.8851,-0.05207c2.03812,1.8118 4.15148,3.53206 6.241,5.27781c-0.5289,-0.76478 -1.03733,-1.54301 -1.49318,-2.32684c-0.29567,-0.5084 -1.02098,-0.99293 -0.83892,-1.55217c0.55241,-1.69688 2.3543,-0.29266 2.89646,0.00534c2.2482,1.23576 4.34176,2.48812 6.37619,3.93684c-0.48075,-0.68176 -0.98533,-1.33123 -1.54317,-1.8893l-0.18087,-0.65242c0,0 0,-0.62694 0.62694,-0.62694z" fill="#ffcc00"/><path d="M276.53078,163.8062c-0.34777,-0.52165 0.17388,-0.86941 0.17388,-0.86941l0.60669,-0.31441c2.93595,-0.26995 5.24184,-1.22752 7.9734,-0.91633l0.01939,-0.17454l1.2387,0.13763c0.31728,0.031 0.56523,0.29852 0.56523,0.62395c0,0.17574 -0.07231,0.3346 -0.18881,0.44843l-0.45553,0.44589l-0.01166,-0.01191l-0.0265,0.04632c-2.01538,1.41534 -3.97136,2.83803 -6.07008,4.13543c-0.58788,0.36342 -1.06361,0.79364 -1.60311,1.10523c1.07457,0.03233 1.97246,0.11981 2.91335,0.40054l0.04309,-0.17237l1.20372,0.30093c0.27919,0.06336 0.48761,0.31304 0.48761,0.61141c0,0.28202 -0.18621,0.52056 -0.4424,0.59934l-0.62193,0.20731l-0.00187,-0.00563l-0.01367,0.01059c-1.50585,0.41544 -2.94068,0.97088 -4.47,1.32061c-1.7871,0.40868 -3.74343,0.45441 -5.45097,1.10332c0,0 -0.58703,0.22013 -0.80716,-0.36689c-0.22013,-0.58703 0.36689,-0.80716 0.36689,-0.80716c2.32371,-0.86138 4.96776,-1.30568 7.50496,-1.85047c-0.53699,-0.04869 -1.06974,-0.10815 -1.56669,-0.11377h-0.84488v0v0c-0.34625,0 -0.62694,-0.28069 -0.62694,-0.62694c0,-0.19529 0.08928,-0.36971 0.22926,-0.4847l0.95959,-0.79965l0.09021,0.10825c2.0863,-2.04071 4.82631,-3.56185 7.25864,-5.18882c-0.75486,0.0755 -1.52339,-0.02571 -2.31708,0.09998c-1.75456,0.27785 -3.44694,0.89153 -5.21695,1.06239l-0.02896,0.10936c0,0 -0.52165,0.34777 -0.86941,-0.17388z" fill="#ffcc00"/></g></g></svg>
